# xmcd CD database file
#
# Track frame offsets:
#	150
#	21579
#	36736
#	47767
#	57512
#	71165
#	88653
#	104336
#	115235
#	127371
#	139087
#	151607
#	162713
#	175148
#	190925
#	205227
#	223990
#	240914
#	299519
#	323741
#
# Disc length: 4625 seconds
#
# Revision: 0
# Processed by: cddbd v1.4PL0 Copyright (c) Steve Scherf et al.
# Submitted via: CDex 1.50beta10
#
DISCID=40120f14
DTITLE=Alex Harvey - Considering the Situation
DYEAR=1900
DGENRE=Blues
TTITLE0=Shout
TTITLE1=Framed
TTITLE2=I just wanna Make Love to you
TTITLE3=Elevator Rock
TTITLE4=St James Infirmary
TTITLE5=Penicillin blues
TTITLE6=Reelin and Rockin
TTITLE7=Ain't That just to Bad
TTITLE8=Agent 00 Soul
TTITLE9=Work Song
TTITLE10=Hair
TTITLE11=Birthday
TTITLE12=Roman Wall Blues
TTITLE13=Midnight Moses
TTITLE14=Hammer Song
TTITLE15=Hole in her Stocking
TTITLE16=Wade in the Water
TTITLE17=Isobel Goudie
TTITLE18=The Harp (previously unreleased)
TTITLE19=The Harp
EXTD=
EXTT0=
EXTT1=
EXTT2=
EXTT3=
EXTT4=
EXTT5=
EXTT6=
EXTT7=
EXTT8=
EXTT9=
EXTT10=
EXTT11=
EXTT12=
EXTT13=
EXTT14=
EXTT15=
EXTT16=
EXTT17=
EXTT18=
EXTT19=
PLAYORDER=
